<svg xmlns="http://www.w3.org/2000/svg" width="1024" height="1024"><path d="M178.338 243.094c-67.596 7.879-125.269 54.164-147.65 118.498-11.647 33.48-12.771 73.615-3.008 107.406 8.549 29.591 23.405 54.955 44.82 76.525C88.772 561.912 108.621 576 115.441 576h3.406l16.695 29.25c42.869 75.107 62.902 108.736 64.032 107.487.615-.68 10.273-16.987 21.462-36.237 19.642-33.794 56.461-92.033 61.843-97.818 1.441-1.55 5.008-4.185 7.925-5.855 27.037-15.476 53.825-44.915 68.09-74.827 39.445-82.713 11.033-181.254-66.082-229.188-33.53-20.842-75.468-30.264-114.474-25.718m5.617 67.005c-14.865 1.923-34.253 9.313-47.074 17.944-8.762 5.898-22.854 19.833-28.896 28.573-22.956 33.207-26.161 75.455-8.496 111.97 24.744 51.145 85.816 75.087 139.07 54.519 42.993-16.604 70.716-57.026 70.716-103.105 0-67.156-58.584-118.532-125.32-109.901m689.28 10.335c-36.736 6.979-66.643 29.755-83.865 63.87-9.682 19.18-14.339 39.942-12.447 55.498 2.965 24.391 14.061 47.117 31.577 64.678 8.54 8.561 23.696 19.526 27 19.533 2.155.004 3.358 1.872 36.536 56.704l17.679 29.216 19.139-31.716c32.007-53.043 32.146-53.252 36.229-54.644 5.612-1.914 18.547-11.344 26.871-19.589 21.522-21.317 32.01-48.432 30.746-79.484-2.013-49.429-34.682-89.91-82.7-102.474-10.894-2.85-35.695-3.695-46.765-1.592m9.128 38.594c-14.175 2.547-26.571 9.21-37.528 20.17-6.116 6.117-8.639 9.608-12.288 17-10.073 20.409-10.043 39.253.096 59.802 3.846 7.794 6.141 10.937 12.777 17.5 13.535 13.386 28.952 19.91 47.08 19.923 19.121.013 32.89-5.801 47.112-19.894 7.497-7.429 9.843-10.535 13.24-17.529 5.534-11.395 7.27-18.559 7.27-30 0-11.441-1.736-18.605-7.27-30-5.594-11.517-18.694-24.776-29.852-30.213-12.855-6.263-28.717-8.901-40.637-6.759M550.111 644.521L511.722 703H272.075l-33.037 39.001c-18.171 21.45-33.038 39.225-33.038 39.5 0 .274 84.052.499 186.782.499h186.782l30.643-81.25 30.643-81.25 102.224-.5 102.223-.5-22.171-16.25L800.955 586l-106.227.021-106.228.021-38.389 58.479" fill="undefined" fill-rule="evenodd"/></svg>